# xmcd CD database file
#
# Track frame offsets:
#	187
#	17207
#	34265
#
# Disc length: 647 seconds
#
# Revision: 0
# Processed by: cddbd v1.5.1PL0 Copyright (c) Steve Scherf et al.
# Submitted via: CDex 1.51
#
DISCID=1e028503
DTITLE=PINK LADY - UFO
DYEAR=1996
DGENRE=JPop
TTITLE0=UFO (MOON LIGHT JUPITER MIX '96)
TTITLE1=UFO (DEEP THE JUPITER MIX)
TTITLE2=UFO (ORIGINAL)
EXTD=YEAR: 1996
EXTT0=
EXTT1=
EXTT2=
PLAYORDER=
